<?xml version="1.0" encoding="UTF-8"?>
<svg width="166px" height="56px" viewBox="0 0 166 56" version="1.1" xmlns="http://www.w3.org/2000/svg" xmlns:xlink="http://www.w3.org/1999/xlink">
    <!-- Generator: Sketch 51.2 (57519) - http://www.bohemiancoding.com/sketch -->
    <title>logo-poli</title>
    <desc>Created with Sketch.</desc>
    <defs></defs>
    <g id="Page-2" stroke="none" stroke-width="1" fill="none" fill-rule="evenodd">
        <g id="Desktop" transform="translate(-278.000000, -952.000000)">
            <g id="logo-poli" transform="translate(278.000000, 952.000000)">
                <path d="M126.356,36.047 C126.602,36.335 127.256,37.037 128.635,37.037 C130.168,37.037 131.147,36.124 131.147,34.913 C131.147,33.956 130.325,33.29 129.803,33.068 L129.803,33.034 C130.303,32.802 130.946,32.144 130.946,31.289 C130.946,30.044 129.913,29.255 128.624,29.255 C127.413,29.255 126.569,30.234 126.569,30.234 C126.489,30.312 126.479,30.445 126.569,30.522 L126.979,30.887 C127.079,30.977 127.2,30.955 127.266,30.866 C127.489,30.621 127.891,30.244 128.557,30.244 C129.211,30.244 129.825,30.709 129.825,31.455 C129.825,32.11 129.302,32.645 128.257,32.645 L127.636,32.645 C127.48,32.645 127.413,32.711 127.413,32.877 L127.413,33.355 C127.413,33.511 127.503,33.589 127.624,33.589 L128.247,33.589 C129.436,33.589 130.003,34.223 130.003,34.889 C130.003,35.633 129.335,36.089 128.614,36.089 C127.79,36.089 127.169,35.489 127.102,35.401 C127.012,35.3 126.913,35.29 126.801,35.378 L126.367,35.778 C126.29,35.846 126.29,35.969 126.356,36.047 Z M123.022,36.037 C121.811,36.037 121.399,34.769 121.489,33.836 C121.555,33.636 122.134,32.991 123.01,32.991 C123.832,32.991 124.489,33.669 124.489,34.502 C124.489,35.336 123.844,36.037 123.022,36.037 Z M120.409,33.923 C120.409,35.635 121.255,37.037 123.034,37.037 C124.378,37.037 125.513,35.891 125.513,34.491 C125.513,32.957 124.368,32.079 123.189,32.079 C122.445,32.079 121.8,32.433 121.71,32.489 C122.077,31.123 123.845,30.2 124.356,30.033 C124.567,29.966 124.612,29.844 124.555,29.711 L124.367,29.255 C124.322,29.132 124.222,29.077 124.088,29.122 C123.065,29.512 120.409,30.823 120.409,33.923 Z M115.286,34.925 C115.286,34.334 115.798,33.724 116.698,33.591 C117.598,33.724 118.108,34.334 118.108,34.925 C118.108,35.668 117.475,36.136 116.688,36.136 C115.954,36.136 115.286,35.658 115.286,34.925 Z M116.698,32.523 C115.831,32.39 115.454,31.934 115.454,31.334 C115.454,30.656 115.997,30.168 116.665,30.168 C117.397,30.168 117.942,30.656 117.942,31.334 C117.942,31.922 117.553,32.402 116.698,32.523 Z M114.129,34.902 C114.129,36.114 115.117,37.038 116.674,37.038 C118.287,37.038 119.266,36.114 119.266,34.902 C119.266,33.946 118.432,33.279 117.918,33.046 L117.918,33.002 C118.398,32.758 119.066,32.146 119.066,31.29 C119.066,30.067 118.052,29.256 116.687,29.256 C115.351,29.256 114.328,30.067 114.328,31.29 C114.328,32.158 114.994,32.769 115.474,33.014 L115.474,33.046 C115.063,33.235 114.129,33.936 114.129,34.902 Z M108.795,36.924 L112.662,36.924 C112.785,36.924 112.873,36.836 112.873,36.726 L112.873,36.247 C112.873,36.125 112.785,36.037 112.662,36.037 L111.441,36.037 L111.441,29.579 C111.441,29.467 111.351,29.367 111.24,29.367 L110.693,29.367 L109.039,30.868 C108.994,30.912 108.973,31.002 109.006,31.091 L109.139,31.48 C109.172,31.58 109.284,31.602 109.383,31.558 L110.35,31.069 L110.35,36.038 L108.795,36.038 C108.672,36.038 108.584,36.126 108.584,36.248 L108.584,36.727 C108.584,36.836 108.672,36.924 108.795,36.924 Z M98.667,33.045 C98.667,31.467 99.968,30.145 101.546,30.145 C103.136,30.145 104.437,31.467 104.437,33.045 C104.437,34.635 103.136,35.924 101.546,35.924 C99.967,35.924 98.667,34.635 98.667,33.045 Z M97.555,33.045 C97.555,35.27 99.323,37.037 101.545,37.037 C103.77,37.037 105.547,35.269 105.547,33.045 C105.547,30.822 103.77,29.033 101.545,29.033 C99.323,29.033 97.555,30.823 97.555,33.045 Z M89.508,36.714 C89.508,36.825 89.61,36.924 89.719,36.924 L90.42,36.924 C90.541,36.924 90.631,36.825 90.631,36.714 L90.631,31.3 L90.641,31.3 L95.467,37.037 L95.756,37.037 C95.865,37.037 95.967,36.947 95.967,36.836 L95.967,29.355 C95.967,29.244 95.865,29.144 95.756,29.144 L95.043,29.144 C94.92,29.144 94.832,29.245 94.832,29.355 L94.832,34.613 L94.822,34.613 L89.996,29.032 L89.719,29.032 C89.61,29.032 89.508,29.121 89.508,29.232 L89.508,36.714 Z M83.362,34.28 L84.717,31.233 L84.774,31.233 L86.139,34.28 L83.362,34.28 Z M81.293,36.924 L81.994,36.924 C82.127,36.924 82.217,36.836 82.25,36.758 C82.471,36.246 82.705,35.747 82.928,35.236 L86.563,35.236 L87.251,36.758 C87.298,36.858 87.374,36.924 87.507,36.924 L88.208,36.924 C88.374,36.924 88.464,36.781 88.397,36.636 L85.006,29.156 C84.973,29.09 84.873,29.033 84.818,29.033 L84.705,29.033 C84.65,29.033 84.551,29.089 84.517,29.156 L81.103,36.636 C81.038,36.782 81.127,36.924 81.293,36.924 Z M76.048,36.714 C76.048,36.825 76.137,36.924 76.259,36.924 L80.216,36.924 C80.338,36.924 80.427,36.825 80.427,36.714 L80.427,36.103 C80.427,35.992 80.338,35.891 80.216,35.891 L77.206,35.891 L77.206,29.355 C77.206,29.244 77.103,29.144 76.992,29.144 L76.259,29.144 C76.137,29.144 76.048,29.245 76.048,29.355 L76.048,36.714 Z M72.735,36.714 C72.735,36.825 72.835,36.924 72.947,36.924 L73.681,36.924 C73.792,36.924 73.892,36.825 73.892,36.714 L73.892,29.355 C73.892,29.244 73.792,29.144 73.681,29.144 L72.947,29.144 C72.835,29.144 72.735,29.245 72.735,29.355 L72.735,36.714 Z M62.542,36.669 C62.52,36.825 62.598,36.924 62.753,36.924 L63.476,36.924 C63.564,36.924 63.664,36.847 63.675,36.77 L64.476,31.801 L64.521,31.801 L66.533,36.913 C66.554,36.98 66.633,37.037 66.721,37.037 L66.921,37.037 C67.021,37.037 67.088,36.98 67.111,36.913 L69.111,31.801 L69.144,31.801 L69.968,36.77 C69.99,36.847 70.079,36.924 70.178,36.924 L70.902,36.924 C71.058,36.924 71.136,36.825 71.102,36.669 L69.734,29.199 C69.711,29.11 69.623,29.032 69.534,29.032 L69.356,29.032 C69.279,29.032 69.189,29.088 69.167,29.155 L66.856,34.835 L66.811,34.835 L64.488,29.155 C64.466,29.089 64.365,29.032 64.299,29.032 L64.122,29.032 C64.033,29.032 63.945,29.109 63.922,29.199 L62.542,36.669 Z" id="Shape" fill="#FFFFFF" fill-rule="nonzero"></path>
                <path d="M156.145,18.327 C156.145,16.326 157.78,14.658 159.784,14.658 C161.782,14.658 163.434,16.326 163.434,18.327 C163.434,20.327 161.782,21.963 159.784,21.963 C157.78,21.962 156.145,20.327 156.145,18.327 Z M154.081,18.327 C154.081,21.502 156.604,24.027 159.784,24.027 C162.958,24.027 165.497,21.503 165.497,18.327 C165.497,15.151 162.958,12.595 159.784,12.595 C156.604,12.594 154.081,15.15 154.081,18.327 Z M143.012,18.327 C143.012,21.502 145.571,24.027 148.744,24.027 C150.158,24.027 151.523,23.535 152.603,22.487 C152.714,22.376 152.746,22.17 152.619,22.058 L151.635,21.042 C151.539,20.946 151.365,20.93 151.239,21.042 C150.571,21.581 149.762,21.947 148.809,21.947 C146.776,21.947 145.252,20.264 145.252,18.279 C145.252,16.278 146.76,14.58 148.793,14.58 C149.682,14.58 150.57,14.93 151.238,15.516 C151.365,15.643 151.523,15.643 151.634,15.516 L152.603,14.516 C152.73,14.389 152.73,14.198 152.587,14.071 C151.507,13.102 150.349,12.595 148.743,12.595 C145.571,12.594 143.012,15.15 143.012,18.327 Z M138.854,23.566 C138.854,23.725 138.997,23.868 139.153,23.868 L140.633,23.868 C140.789,23.868 140.932,23.725 140.932,23.566 L140.932,13.055 C140.932,12.896 140.789,12.753 140.633,12.753 L139.153,12.753 C138.997,12.753 138.854,12.896 138.854,13.055 L138.854,23.566 Z M126.739,23.566 C126.739,23.725 126.88,23.868 127.04,23.868 L128.485,23.868 C128.659,23.868 128.784,23.725 128.784,23.566 L128.784,16.738 L128.802,16.738 L135.441,24.026 L135.822,24.026 C135.98,24.026 136.123,23.9 136.123,23.74 L136.123,13.055 C136.123,12.896 135.98,12.753 135.822,12.753 L134.361,12.753 C134.185,12.753 134.058,12.896 134.058,13.055 L134.058,19.613 L134.042,19.613 L127.437,12.594 L127.041,12.594 C126.881,12.594 126.74,12.719 126.74,12.879 L126.74,23.566 L126.739,23.566 Z M115.034,18.327 C115.034,21.502 117.591,24.027 120.766,24.027 C122.18,24.027 123.545,23.535 124.625,22.487 C124.736,22.376 124.768,22.17 124.641,22.058 L123.657,21.042 C123.561,20.946 123.386,20.93 123.259,21.042 C122.593,21.581 121.784,21.947 120.831,21.947 C118.798,21.947 117.274,20.264 117.274,18.279 C117.274,16.278 118.782,14.58 120.813,14.58 C121.704,14.58 122.592,14.93 123.258,15.516 C123.385,15.643 123.545,15.643 123.656,15.516 L124.625,14.516 C124.752,14.389 124.752,14.198 124.609,14.071 C123.529,13.102 122.371,12.595 120.765,12.595 C117.59,12.594 115.034,15.15 115.034,18.327 Z M106.35,23.566 C106.35,23.725 106.477,23.868 106.651,23.868 L113.114,23.868 C113.288,23.868 113.415,23.725 113.415,23.566 L113.415,22.264 C113.415,22.105 113.288,21.962 113.114,21.962 L108.413,21.962 L108.413,19.183 L112.335,19.183 C112.495,19.183 112.638,19.057 112.638,18.882 L112.638,17.564 C112.638,17.406 112.495,17.262 112.335,17.262 L108.413,17.262 L108.413,14.658 L113.114,14.658 C113.288,14.658 113.415,14.516 113.415,14.356 L113.415,13.055 C113.415,12.896 113.288,12.753 113.114,12.753 L106.651,12.753 C106.477,12.753 106.35,12.896 106.35,13.055 L106.35,23.566 Z M99.727,23.566 C99.727,23.725 99.87,23.868 100.028,23.868 L101.505,23.868 C101.665,23.868 101.808,23.725 101.808,23.566 L101.808,14.657 L104.238,14.657 C104.414,14.657 104.541,14.515 104.541,14.355 L104.541,13.054 C104.541,12.895 104.414,12.752 104.238,12.752 L97.299,12.752 C97.125,12.752 96.998,12.895 96.998,13.054 L96.998,14.355 C96.998,14.515 97.125,14.657 97.299,14.657 L99.729,14.657 L99.729,23.566 L99.727,23.566 Z M92.917,23.566 C92.917,23.725 93.06,23.868 93.218,23.868 L94.695,23.868 C94.853,23.868 94.998,23.725 94.998,23.566 L94.998,13.055 C94.998,12.896 94.853,12.753 94.695,12.753 L93.218,12.753 C93.06,12.753 92.917,12.896 92.917,13.055 L92.917,23.566 Z M84.42,23.566 C84.42,23.725 84.547,23.868 84.721,23.868 L90.533,23.868 C90.707,23.868 90.834,23.725 90.834,23.566 L90.834,22.264 C90.834,22.105 90.707,21.962 90.533,21.962 L86.484,21.962 L86.484,13.054 C86.484,12.895 86.339,12.752 86.181,12.752 L84.72,12.752 C84.546,12.752 84.419,12.895 84.419,13.054 L84.419,23.566 L84.42,23.566 Z M73.4,18.327 C73.4,16.326 75.036,14.658 77.036,14.658 C79.036,14.658 80.69,16.326 80.69,18.327 C80.69,20.327 79.036,21.963 77.036,21.963 C75.036,21.963 73.4,20.327 73.4,18.327 Z M71.335,18.327 C71.335,21.502 73.859,24.027 77.036,24.027 C80.213,24.027 82.752,21.503 82.752,18.327 C82.752,15.151 80.212,12.595 77.036,12.595 C73.86,12.594 71.335,15.15 71.335,18.327 Z M64.603,17.898 L64.603,14.706 L66.445,14.706 C67.334,14.706 68.081,15.373 68.081,16.245 C68.081,17.183 67.334,17.898 66.445,17.898 L64.603,17.898 Z M62.538,23.566 C62.538,23.725 62.665,23.868 62.84,23.868 L64.301,23.868 C64.461,23.868 64.603,23.725 64.603,23.566 L64.603,19.834 L66.588,19.834 C68.525,19.834 70.13,18.23 70.13,16.262 C70.13,14.341 68.526,12.752 66.573,12.752 L62.84,12.752 C62.666,12.752 62.538,12.895 62.538,13.054 L62.538,23.566 Z" id="Shape" fill="#FFFFFF" fill-rule="nonzero"></path>
                <g id="Group">
                    <path d="M56.317,29.878 L53.846,29.715 M56.196,31.181 L53.739,30.894 M56.02,32.46 L53.575,32.079 M55.782,33.746 L53.358,33.242 M55.483,35.019 L53.088,34.394 M55.124,36.275 L52.765,35.531 M54.713,37.5 L52.383,36.668 M54.239,38.716 L51.954,37.771 M53.708,39.91 L51.472,38.851 M53.124,41.076 L50.94,39.91 M52.483,42.212 L50.36,40.942 M51.792,43.32 L49.733,41.947 M51.057,44.38 L49.049,42.935 M50.264,45.416 L48.328,43.877 M49.426,46.416 L47.567,44.783 M48.543,47.373 L46.762,45.656 M47.616,48.291 L45.919,46.488 M46.647,49.162 L45.038,47.283 M45.637,49.988 L44.121,48.033 M44.592,50.767 L43.17,48.742 M43.524,51.49 L42.174,49.414 M42.411,52.167 L41.163,50.03 M41.266,52.794 L40.123,50.601 M40.094,53.367 L39.057,51.119 M38.897,53.884 L37.971,51.589 M37.674,54.345 L36.863,52.007 M36.432,54.748 L35.737,52.373 M35.188,55.087 L34.581,52.689 M33.913,55.373 L33.425,52.947 M32.625,55.599 L32.26,53.15 M31.329,55.763 L31.086,53.3 M30.042,55.865 L29.892,53.394 M28.735,55.908 L28.712,53.433 M27.428,55.89 L27.53,53.417 M26.137,55.814 L26.332,53.347 M24.838,55.677 L25.156,53.222 M23.545,55.48 L23.988,53.044 M22.28,55.224 L22.815,52.81 M21.01,54.908 L21.666,52.523 M19.76,54.533 L20.533,52.183 M18.528,54.099 L19.417,51.79 M17.333,53.613 L18.306,51.34 M16.147,53.066 L17.231,50.843 M14.989,52.464 L16.18,50.296 M13.86,51.81 L15.157,49.701 M12.762,51.103 L14.16,49.06 M11.702,50.345 L13.194,48.37 M10.688,49.548 L12.25,47.63 M9.7,48.695 L11.354,46.855 M8.754,47.798 L10.494,46.038 M7.852,46.859 L9.672,45.183 M6.993,45.876 L8.891,44.29 M6.178,44.857 L8.153,43.365 M5.415,43.802 L7.458,42.404 M4.7,42.71 L6.805,41.411 M4.043,41.601 L6.195,40.378 M3.432,40.447 L5.641,39.332 M2.877,39.267 L5.137,38.259 M2.377,38.062 L4.682,37.166 M1.932,36.833 L4.282,36.052 M1.547,35.587 L3.93,34.919 M1.221,34.322 L3.633,33.775 M0.958,33.058 L3.39,32.601 M0.75,31.769 L3.203,31.433 M0.606,30.47 L3.071,30.259 M0.52,29.18 L2.993,29.062 M0.497,27.873 L2.97,27.88 M0.532,26.566 L3.003,26.699 M0.625,25.278 L3.09,25.504 M0.782,23.98 L3.231,24.33 M0.997,22.69 L3.425,23.164 M1.268,21.428 L3.676,21.992 M1.604,20.164 L3.981,20.85 M1.997,18.917 L4.337,19.721 M2.448,17.693 L4.745,18.61 M2.956,16.49 L5.206,17.52 M3.512,15.326 L5.723,16.438 M4.131,14.177 L6.285,15.395 M4.803,13.058 L6.895,14.379 M5.526,11.972 L7.551,13.393 M6.297,10.92 L8.252,12.438 M7.12,9.907 L8.999,11.516 M7.985,8.932 L9.786,10.628 M8.885,8.01 L10.623,9.77 M9.838,7.12 L11.491,8.96 M10.831,6.275 L12.395,8.193 M11.862,5.477 L13.333,7.467 M12.928,4.727 L14.301,6.786 M14.03,4.028 L15.303,6.15 M15.163,3.38 L16.333,5.561 M16.325,2.787 L17.386,5.021 M17.499,2.253 L18.479,4.525 M18.711,1.771 L19.58,4.087 M19.946,1.345 L20.7,3.701 M21.198,0.977 L21.835,3.368 M22.467,0.668 L22.985,3.087 M23.735,0.422 L24.161,2.86 M25.028,0.234 L25.333,2.69 M26.329,0.107 L26.509,2.575 M27.633,0.04 L27.69,2.514 M28.926,0.034 L28.887,2.509 M30.233,0.088 L30.069,2.557 M31.534,0.201 L31.247,2.659 M32.815,0.373 L32.436,2.818 M34.098,0.606 L33.598,3.029 M35.372,0.899 L34.753,3.294 M36.616,1.246 L35.907,3.617 M37.856,1.657 L37.032,3.99 M39.073,2.125 L38.135,4.415 M40.268,2.649 L39.221,4.891 M41.438,3.229 L40.282,5.417 M42.577,3.863 L41.319,5.994 M43.686,4.549 L42.327,6.617 M44.76,5.287 L43.305,7.288 M45.799,6.074 L44.25,8.002 M46.792,6.898 L45.175,8.771 M47.752,7.778 L46.049,9.572 M48.672,8.7 L46.887,10.412 M49.549,9.665 L47.684,11.291 M50.379,10.668 L48.441,12.204 M51.165,11.709 L49.155,13.152 M51.899,12.787 L49.823,14.134 M52.583,13.897 L50.444,15.143 M53.213,15.038 L51.018,16.182 M53.79,16.207 L51.544,17.244 M54.313,17.402 L52.02,18.33 M54.778,18.62 L52.442,19.436 M55.182,19.846 L52.819,20.575 M55.532,21.103 L53.136,21.717 M55.823,22.375 L53.399,22.871 M56.053,23.661 L53.608,24.037 M56.223,24.956 L53.76,25.21 M56.331,26.243 L53.862,26.405 M56.379,27.547 L53.904,27.586 M56.368,28.717 L53.895,28.631" id="Shape" stroke="#FFFFFF" stroke-width="0.463"></path>
                    <polyline id="Shape" fill-rule="nonzero" points="29.817 30.492 29.815 30.492 29.817 30.49 29.817 30.492"></polyline>
                    <path d="M29.815,30.492 C29.815,30.494 29.815,30.494 29.815,30.494 L29.815,30.492 Z" id="Shape" fill-rule="nonzero"></path>
                    <path d="M29.815,30.494 C29.813,30.494 29.813,30.494 29.815,30.492 L29.815,30.494 Z" id="Shape" fill-rule="nonzero"></path>
                    <path d="M8.954,21.275 C8.954,21.275 7.737,22.112 7.757,24.134 C7.777,26.015 8.054,28.6 7.275,29.999 C7.216,30.103 7.154,30.203 7.086,30.3 C7.086,30.3 6.484,31.007 6.988,31.036 C7.492,31.065 7.789,31.026 8.035,31.304 C8.137,31.421 8.254,31.536 8.373,31.597 C8.373,31.597 8.883,31.714 9.441,31.63 L8.954,21.275 Z M10.606,21.461 C10.606,21.461 9.78,22.315 9.78,23.668 C9.782,25.018 10.165,27.02 10.157,27.484 C10.151,27.77 10.036,28.472 9.887,29.161 C9.795,29.587 9.565,30.54 9.977,31.565 L10.606,21.461 Z M7.463,19.208 C7.463,19.208 7.459,19.21 7.455,19.214 C7.389,19.27 6.908,19.727 7.656,20.869 L7.463,19.208 Z M14.379,19.017 C14.379,19.017 14.318,19.061 14.213,19.137 C13.943,19.331 13.381,19.731 12.777,20.13 C11.937,20.686 11.215,19.916 10.791,19.607 C10.363,19.301 9.459,19.607 8.643,19.722 C8.168,19.787 7.754,19.499 7.455,19.213 C7.242,19.009 7.086,18.808 7.006,18.735 C6.813,18.562 6.66,17.786 6.871,17.595 C7.086,17.406 7.695,16.675 7.695,16.675 C8.646,14.956 9.629,14.733 9.629,14.733 L14.379,19.017 Z M18.506,26.259 C18.486,26.308 18.385,26.574 18.361,26.665 C18.336,26.764 18.275,27.103 18.265,27.243 C18.257,27.385 18.267,27.568 18.163,27.622 C18.163,27.622 17.909,27.808 17.767,27.821 C17.624,27.831 17.382,27.856 17.247,27.749 C17.112,27.639 16.962,27.448 16.827,27.342 C16.8,27.318 16.768,27.286 16.739,27.247 C16.626,27.099 16.522,26.844 16.575,26.496 C16.641,26.055 16.905,25.71 16.911,25.606 C16.917,25.506 16.429,24.224 16.429,24.224 C16.429,24.224 15.681,23.212 15.556,22.961 C15.46,22.775 15.036,22.311 14.751,21.23 C14.655,20.861 14.573,20.419 14.526,19.892 C14.526,19.892 14.422,19.586 14.448,19.02 C14.452,18.898 14.464,18.763 14.483,18.618 C14.59,17.796 14.555,16.723 14.567,16.521 C14.571,16.473 14.581,16.375 14.596,16.246 C14.645,15.846 14.758,15.145 14.94,14.667 C15.18,14.035 16.1,12.496 16.1,12.496 L18.506,26.259 Z M18.508,26.251 C18.508,26.251 18.508,26.253 18.506,26.257 L18.508,26.251 Z M14.172,19.083 L12.984,18.688 C12.787,18.634 11.642,18.165 11.4,18.149 C11.162,18.135 10.57,17.9 10.298,17.723 C10.025,17.541 9.47,16.702 9.482,16.499 C9.492,16.334 9.574,15.42 9.691,14.744 C9.716,14.592 9.746,14.452 9.773,14.335 C9.931,13.7 10.47,13.49 10.847,13.27 C11.224,13.05 11.636,12.227 12.054,11.968 C12.474,11.711 13.577,11.496 14.437,11.304 C15.294,11.115 16.941,11.293 16.941,11.293 C16.941,11.293 16.992,11.29 17.078,11.292 C17.324,11.299 17.865,11.347 18.408,11.618 C18.554,11.69 18.703,11.78 18.844,11.889 C19.147,12.126 19.367,12.404 19.51,12.699 C19.768,13.226 19.787,13.812 19.627,14.322 C19.525,14.642 19.367,14.941 19.191,15.191 C18.937,15.557 18.656,15.823 18.48,15.909 C18.189,16.053 17.904,16.117 17.757,16.553 C17.611,16.987 17.388,17.983 16.919,18.4 C16.919,18.4 16.845,18.421 16.894,18.623 C16.91,18.681 16.933,18.755 16.972,18.849 C17.15,19.263 17.728,20.387 17.718,21.236 C17.706,22.085 17.861,22.899 18.064,23.557 C18.267,24.216 18.664,25.007 18.824,25.017 C18.984,25.027 19.303,25.125 19.416,25.256 C19.529,25.383 19.963,25.568 20.082,25.618 C20.152,25.645 20.324,25.724 20.357,25.812 C20.38,25.871 20.343,25.932 20.181,25.987 C19.767,26.125 19.411,26.021 19.411,26.021 C19.411,26.021 19.194,25.898 19.124,25.902 C19.054,25.908 18.956,26.005 18.894,26.04 C18.837,26.075 18.595,26.141 18.505,26.258 C18.505,26.259 18.505,26.259 18.505,26.26 C18.497,26.269 18.489,26.279 18.485,26.289 L14.172,19.083 Z M14.506,16.235 C13.844,16.479 13.158,15.792 12.522,14.987 C11.883,14.18 12.37,13.481 13.276,12.487 C14.083,11.604 16.534,11.354 17.077,11.313 L14.506,16.235 Z M16.967,18.625 L17.992,18.11 L18.799,17.706 C18.799,17.706 20,17.288 20.658,16.995 C20.896,16.89 21.062,16.8 21.078,16.753 C21.127,16.574 21.119,16.067 21.119,16.067 L16.967,18.625 Z M21.374,14.831 C21.374,14.831 21.464,15.554 21.063,16.038 C20.999,16.117 20.918,16.189 20.825,16.251 L20.151,16.698 L21.374,14.831 Z M23.973,14.562 C23.973,14.562 24.276,14.902 24.364,14.465 C24.452,14.026 24.848,13.1 24.921,12.902 C24.995,12.707 25.071,12.625 25.071,12.625 L23.973,14.562 Z M19.323,15.25 L21.278,14.743 L21.389,14.803 L22.159,15.221 C22.159,15.221 22.667,15.493 22.85,15.464 C23.033,15.435 23.039,15.333 23.043,15.253 C23.049,15.174 23.178,15.038 23.24,15.023 C23.301,15.007 23.433,14.834 23.433,14.834 C23.433,14.834 23.673,14.827 23.759,14.772 C23.839,14.72 23.96,14.577 23.972,14.562 L19.323,15.25 Z M18.434,11.568 C18.319,11.262 18.635,10.977 18.774,10.896 C18.795,10.884 19.003,10.839 19.003,10.839 C19.001,10.818 18.999,10.806 18.997,10.788 C18.968,10.35 20.309,10.136 20.309,10.136 C20.348,9.277 22.397,9.642 22.397,9.642 C23.364,9.485 24.342,10.216 24.342,10.216 C25.104,10.071 25.508,10.987 25.508,10.987 C26.235,11.205 25.918,12.249 25.897,12.343 C25.879,12.434 25.881,12.609 25.501,12.668 C25.378,12.686 25.235,12.646 25.091,12.581 C24.79,12.445 24.747,12.51 24.31,12.232 L23.763,11.822 C23.763,11.822 23.802,12.256 23.618,12.434 C23.432,12.611 23.366,12.607 23.243,12.6 C23.124,12.593 22.852,12.858 22.684,12.958 C22.516,13.055 22.245,13.344 21.825,13.362 C21.825,13.362 21.036,13.531 20.813,13.408 C20.59,13.288 20.088,13.514 20.018,13.322 C19.973,13.199 19.84,13.013 19.604,12.864 L18.434,11.568 Z M23.172,14.549 L23.434,14.833 L23.172,14.549 Z M18.049,18.118 C18.049,18.118 17.906,18.65 18.061,18.898 C18.061,18.898 18.473,20.049 19.713,20.142 C19.83,20.152 20.969,20.196 20.969,20.196 L18.049,18.118 Z M20.854,17.047 C20.854,17.047 21.653,17.614 21.727,17.893 L20.854,17.047 Z M16.727,27.258 L15.456,27.802 C15.456,27.802 14.144,28.128 13.817,28.165 C13.493,28.197 12.237,28.473 12.274,29.203 C12.311,29.93 12.188,30.19 12.446,30.393 C12.704,30.6 12.938,30.721 12.938,30.721 L16.727,27.258 Z M13.911,30.214 C13.911,30.214 13.405,30.458 12.958,30.751 C12.731,30.897 12.522,31.056 12.397,31.202 C12.069,31.581 11.797,32.007 11.719,32.378 C11.709,32.431 11.701,32.482 11.699,32.534 C11.674,32.932 12.031,33.276 12.183,33.395 L13.911,30.214 Z M11.653,32.369 C11.653,32.369 10.774,31.777 10.639,31.769 C10.577,31.765 10.342,31.726 10.086,31.691 C9.813,31.654 9.51,31.621 9.356,31.64 C9.057,31.675 8.11,32.208 8.049,32.771 C7.988,33.334 7.549,34.841 8.949,34.816 C8.949,34.816 9.482,34.519 9.732,34.291 C9.769,34.258 9.798,34.227 9.82,34.199 C9.998,33.967 11.027,33.379 11.216,33.39 C11.325,33.398 11.786,33.386 12.181,33.425 C12.452,33.452 12.693,33.501 12.765,33.593 C12.939,33.818 13.056,34.579 13.158,34.665 C13.262,34.753 14.082,35.421 14.082,35.421 L11.653,32.369 Z M19.012,38.472 L19.012,38.474 L19.625,39.29 L19.945,39.833 C19.945,39.833 20.105,40.017 20.211,39.97 C20.313,39.929 20.436,39.874 20.352,39.658 C20.262,39.439 20.077,39.006 20.077,39.006 C20.077,39.006 19.806,38.475 19.556,38.277 L20.118,38.492 L20.886,38.982 C20.886,38.982 21.009,38.968 21.052,38.912 C21.095,38.853 21.042,38.748 20.986,38.685 C20.93,38.622 20.355,37.912 20.355,37.912 C20.355,37.912 20.103,37.723 19.976,37.668 C19.976,37.668 19.851,37.568 19.826,37.494 C19.801,37.424 19.482,37.131 19.426,37.078 C19.369,37.023 18.873,36.711 18.703,36.672 C18.535,36.631 18.084,36.574 18.119,36.313 C18.156,36.055 18.695,34.774 18.695,34.774 L19.088,33.979 C19.088,33.979 19.152,33.852 19.244,33.667 C19.43,33.29 19.713,32.675 19.728,32.421 C19.728,32.421 20.677,32.292 20.707,31.835 C20.732,31.38 21.07,30.7 18.332,29.699 C18.332,29.699 17.518,30.245 17.117,31.081 C16.916,31.503 16.711,32.001 16.56,32.575 C16.414,33.141 16.322,33.786 16.345,34.507 C16.363,35.075 16.38,35.683 16.427,36.241 L19.012,38.472 Z M18.62,39.058 L19.237,40.347 C19.237,40.347 19.425,40.439 19.479,40.39 C19.532,40.343 19.606,40.288 19.571,40.197 C19.538,40.103 19.428,39.722 19.428,39.722 L19.268,39.177 L19.137,38.847 L19.012,38.474 L18.62,39.058 Z M16.426,36.242 C16.498,37.117 16.643,37.871 16.987,38.152 C16.987,38.152 17.401,38.502 17.45,38.545 C17.499,38.59 17.868,38.822 17.901,38.906 C17.938,38.986 18.044,39.265 17.989,39.322 C17.934,39.381 17.716,39.5 17.692,39.541 C17.671,39.578 17.596,39.795 17.745,39.875 C17.745,39.875 17.809,39.928 17.888,39.832 C17.964,39.736 18.077,39.701 18.148,39.687 C18.22,39.669 18.593,39.511 18.603,39.349 C18.611,39.197 18.621,39.072 18.621,39.058 L16.426,36.242 Z M13.635,29.875 C13.635,29.875 13.748,30 13.932,30.193 C14.524,30.818 15.848,32.183 16.461,32.548 L13.635,29.875 Z M9.897,34.308 C9.897,34.308 9.983,35.122 10.284,35.49 C10.309,35.523 10.345,35.56 10.384,35.599 C10.779,35.994 11.763,36.628 12.958,36.699 C14.267,36.777 15.653,36.969 16.427,36.242 L16.427,36.24 C16.429,36.24 16.431,36.236 16.431,36.236 L9.897,34.308 Z M10.354,35.628 C10.354,35.628 10.01,37.103 10.979,38.007 C11,38.027 11.022,38.046 11.043,38.064 C12.094,38.962 13.002,39.986 14.231,40.572 C15.461,41.162 18.17,42.234 18.461,42.336 C18.52,42.356 18.635,42.398 18.777,42.457 C19.32,42.676 20.289,43.102 20.451,43.26 L10.354,35.628 Z M10.936,38.058 C10.936,38.058 10.709,38.261 10.692,38.529 C10.676,38.799 10.672,39.308 10.458,39.783 C10.241,40.252 9.8,41.332 9.839,41.576 C9.878,41.822 10.46,42.83 10.466,42.881 C10.474,42.934 10.636,43.096 10.665,43.106 C10.694,43.118 10.944,43.153 10.997,43.145 C11.046,43.139 11.226,43.17 11.288,43.153 C11.349,43.139 11.515,43.094 11.518,43.014 C11.521,42.934 11.508,42.823 11.571,42.797 C11.633,42.77 11.938,42.404 11.829,42.367 C11.722,42.332 11.532,42.267 11.434,42.232 C11.334,42.195 11.204,42.199 11.151,42.074 C11.096,41.949 11.042,41.875 11.089,41.748 C11.138,41.617 11.286,41.498 11.382,41.432 C11.476,41.368 12.614,40.565 12.794,40.596 C12.974,40.631 13.413,40.727 13.595,40.897 C13.775,41.071 15.333,42.376 15.667,42.528 C16.001,42.678 17.355,43.499 18.028,43.565 C18.7,43.639 19.883,43.891 20.391,44.032 C20.897,44.173 21.996,44.382 22.473,43.833 C22.95,43.286 23.164,43.251 23.194,42.907 C23.223,42.565 23.395,41.587 23.11,41.104 C22.827,40.624 22.555,40.286 22.555,40.286 L10.936,38.058 Z M20.368,25.81 C20.368,25.81 21.813,26.184 22.438,26.622 C22.45,26.629 22.458,26.635 22.467,26.643 C22.543,26.698 22.604,26.754 22.649,26.809 L20.368,25.81 Z M20.649,34.228 C20.649,34.228 21.217,35.39 21.276,35.8 C21.309,36.046 21.626,37.068 21.883,37.874 C22.051,38.392 22.192,38.823 22.221,38.897 C22.276,39.055 22.625,39.465 22.496,40.126 C22.486,40.169 22.476,40.212 22.465,40.257 C22.434,40.366 22.391,40.48 22.332,40.599 C21.873,41.546 21.756,42.585 19.367,42.497 L18.783,42.442 L20.649,34.228 Z M22.797,32.943 C24.162,32.763 24.426,31.07 24.461,30.535 C24.465,30.461 24.338,30.001 24.338,30.001 C24.338,30.001 24.225,29.483 24.108,29.032 C24.04,28.76 22.649,26.808 22.649,26.808 L22.797,32.943 Z M22.463,26.587 C22.463,26.587 22.256,25.706 22.615,25.54 C22.615,25.54 22.635,25.522 22.666,25.495 C22.73,25.434 22.852,25.325 22.93,25.236 C23.047,25.108 23.307,24.798 23.469,24.784 C23.631,24.763 23.803,24.615 23.916,24.488 C24.033,24.357 24.385,23.894 24.916,23.981 C25.449,24.067 26.631,24.111 26.785,24.227 C26.939,24.345 27.666,24.846 27.771,24.852 C27.812,24.855 27.914,24.853 28.037,24.874 C28.244,24.91 28.506,25.011 28.605,25.305 C28.605,25.305 28.916,25.539 28.648,25.928 C28.648,25.928 29.222,26.256 29.312,26.534 C29.404,26.806 29.48,27.35 28.984,27.509 C28.984,27.509 28.388,27.581 28.283,27.575 C28.283,27.575 28.242,27.33 28.109,27.293 C27.978,27.261 27.843,27.253 27.703,27.351 C27.562,27.451 27.088,27.745 26.951,27.792 C26.812,27.834 26.566,27.875 26.537,27.955 C26.504,28.034 26.408,28.217 25.912,28.48 C25.908,28.483 24.076,28.898 24.066,28.9 L22.463,26.587 Z M24.586,29.134 C24.586,29.134 24.77,29.515 24.973,29.752 C25.176,29.989 25.871,30.284 26.313,30.149 C26.501,30.092 26.551,29.949 26.661,29.927 C26.768,29.906 26.915,29.754 27.052,29.736 C27.185,29.716 27.339,29.402 27.339,29.402 C27.339,29.402 27.79,29.51 27.806,29.24 C27.822,28.972 27.837,28.302 27.837,28.302 C27.837,28.302 28.198,28.082 28.284,27.575 L24.586,29.134 Z M26.782,29.693 L26.602,29.549 L26.782,29.693 Z M27.334,29.403 C27.334,29.403 26.994,29.301 27,29.192 L27.334,29.403 Z M19.395,33.693 C19.395,33.693 19.797,34.209 20.645,34.166 L20.645,34.164 C21.68,34.008 22.446,33.41 22.756,32.918 C23.182,32.119 23.496,31.027 22.254,29.463 L19.395,33.693 Z M28.834,20.207 C28.803,20.89 29.135,21.041 29.188,21.136 C29.243,21.229 29.315,21.367 29.315,21.367 C29.315,21.367 29.54,21.399 29.764,21.309 C29.991,21.219 30.219,20.989 30.219,20.989 C30.578,20.719 30.291,20.459 30.379,20.18 C30.467,19.906 30.209,19.645 30.209,19.645 C30.209,19.645 30.309,19.651 30.314,19.551 C30.32,19.45 30.041,19.23 30.002,19.209 C29.963,19.187 30.033,19.051 29.959,18.912 C29.887,18.78 29.816,18.42 29.816,18.42 C29.812,18.376 29.75,18.114 29.742,18.079 C29.656,17.743 29.41,17.663 29.41,17.663 C29.4,17.469 29.166,17.32 29.166,17.32 C29.223,16.897 28.805,16.95 28.756,16.762 C28.707,16.579 28.33,16.397 28.33,16.397 C28.172,16.146 27.723,16.082 27.723,16.082 C27.575,16.044 26.907,16.313 26.907,16.313 C26.907,16.313 26.653,16.238 26.343,16.37 C26.343,16.37 25.695,16.221 25.372,16.887 C25.372,16.887 25.034,17.115 24.886,17.403 C24.886,17.403 24.394,18.862 24.325,19.371 C24.251,19.915 24.29,19.798 24.237,19.94 C24.147,20.188 23.108,21.103 23.63,21.479 C24.153,21.853 24.302,21.913 24.398,22.16 C24.496,22.408 25.99,22.593 26.312,22.448 C26.634,22.303 26.816,21.245 26.816,21.245 C26.836,21.004 26.849,20.783 26.765,20.457 C26.732,20.327 26.689,20.201 26.642,20.093 C26.472,19.71 26.408,19.292 26.419,19.083 C26.433,18.87 26.3,18.541 26.161,18.358 C26.018,18.177 25.809,17.974 25.862,17.604 C25.915,17.232 26.219,16.706 26.383,16.643 C26.549,16.584 26.957,16.305 27.756,16.496 C27.756,16.496 28.061,16.766 28.119,16.811 C28.176,16.854 28.414,17.005 28.578,17.145 C28.74,17.29 28.801,17.479 28.807,17.531 L28.834,20.207 Z M29.208,18.072 C29.214,18.162 29.345,18.964 29.341,19.025 C29.337,19.084 29.577,19.686 29.417,19.821 C29.235,19.969 28.97,20.09 28.782,20.183 C27.372,20.187 26.6,19.887 26.6,19.887 L29.208,18.072 Z M23.629,21.479 C23.629,21.479 21.438,22.736 21.873,26.254 L23.629,21.479 Z M27.989,22.355 L28.044,24.843 L27.989,22.355 Z M23.792,37.341 C23.792,37.341 23.579,34.318 23.665,33.884 L23.792,37.341 Z M26.543,13.243 C26.543,13.243 26.549,12.463 26.762,12.272 C26.918,12.135 27.211,11.909 27.512,11.852 C27.625,11.831 27.741,11.835 27.848,11.879 C28.244,12.04 29.356,12.55 29.643,13.199 C29.819,13.603 29.768,13.866 29.657,14.031 C29.589,14.131 29.497,14.195 29.419,14.234 C29.21,14.344 28.749,14.426 28.749,14.426 L26.543,13.243 Z M31.581,9.033 C31.583,9.034 31.585,9.035 31.587,9.037 L31.581,9.033 Z M27.497,11.723 C27.497,11.723 27.083,10.987 27.765,10.177 C28.445,9.372 28.667,9.264 28.953,9.227 C29.236,9.191 29.738,9.125 29.738,9.125 C29.738,9.125 30.677,8.446 31.582,9.031 L27.497,11.723 Z M29.795,18.208 C29.795,18.208 30.268,17.114 30.311,17.048 C30.311,17.048 31.141,15.807 30.311,13.724 C30.18,13.4 29.684,14.003 29.661,14.035 C29.659,14.035 29.659,14.036 29.659,14.036 L29.795,18.208 Z M34.747,15.504 C34.747,15.504 34.608,16.137 34.517,16.102 C34.425,16.071 34.163,15.631 34.163,15.631 L34.44,14.658 L34.563,13.455 L34.569,13.398 L35.51,11.866 C35.528,11.761 35.414,11.203 35.299,11.1 C35.184,11 34.856,10.63 34.838,10.495 C34.818,10.358 34.711,9.909 34.711,9.909 C34.711,9.909 34.018,10.471 33.865,10.558 C33.711,10.643 33.207,10.545 33.07,10.537 C32.937,10.529 32.623,10.617 32.547,10.773 C32.469,10.929 32.197,11.414 32.125,11.516 C32.051,11.62 31.967,12.124 31.967,12.369 C31.965,12.493 31.908,12.596 31.846,12.691 C31.785,12.78 31.721,12.862 31.69,12.945 C31.626,13.114 31.71,13.281 31.747,13.552 C31.784,13.824 31.729,14.276 31.694,14.411 C31.661,14.543 31.43,14.544 31.38,14.541 C31.325,14.538 31.032,14.708 31.032,14.708 C31.032,14.708 31.094,14.333 31.116,14.24 C31.134,14.146 30.884,13.607 30.827,13.429 C30.77,13.25 30.593,11.935 30.595,11.65 C30.599,11.371 30.904,10.554 30.929,10.407 C30.95,10.26 31.161,9.639 31.312,9.381 C31.363,9.291 31.464,9.163 31.582,9.03 L31.582,9.032 C31.805,8.775 32.084,8.498 32.178,8.424 C32.319,8.313 33.219,8.097 33.219,8.097 C33.219,8.097 34.291,7.986 34.875,8.586 C34.875,8.586 35.531,8.611 35.721,9.025 C35.912,9.444 36.274,10.126 36.235,10.322 C36.198,10.523 36.079,10.73 36.098,10.841 C36.117,10.952 36.053,11.579 35.989,11.751 C35.981,11.772 35.973,11.794 35.968,11.813 C35.915,11.956 35.882,12.073 35.896,12.201 C35.916,12.35 36.06,12.845 35.972,12.947 C35.886,13.049 35.732,13.147 35.726,13.243 C35.722,13.335 35.72,13.78 35.58,13.892 C35.437,14.005 35.375,14.174 35.371,14.255 C35.365,14.337 35.492,14.909 35.303,15.152 C35.237,15.238 35.176,15.301 35.119,15.344 L35.119,15.345 C35.066,15.35 34.976,15.333 34.898,15.397 L34.747,15.504 Z M31.907,12.704 C31.907,12.704 32.227,13.84 32.825,13.996 C32.825,13.996 33.753,14.024 34.514,13.451 L31.907,12.704 Z M39.387,15.617 C39.385,15.605 39.383,15.494 39.383,15.494 L39.387,15.617 Z M36.061,11.849 C36.061,11.849 37.842,12.48 38.967,14.35 C38.967,14.35 39.383,15.075 39.387,15.44 C39.387,15.561 39.387,15.608 39.387,15.617 L36.061,11.849 Z M40.245,16.559 C40.245,16.559 40.016,16.129 39.358,15.66 C39.04,15.432 38.661,15.206 38.241,15.036 L40.245,16.559 Z M35.125,15.358 C35.125,15.358 34.824,16.58 36.502,17.771 L35.125,15.358 Z M32.151,21.352 L30.426,20.526 L32.151,21.352 Z M31.458,38.302 C31.677,38.009 31.919,37.513 31.765,36.857 C31.507,35.765 31.548,35.527 31.648,35.209 C31.712,35.006 33.076,33.383 34.005,31.684 C34.105,31.506 34.196,31.325 34.284,31.145 C34.661,30.36 34.907,29.588 34.848,28.966 L35.674,27.202 L35.682,27.184 L31.458,38.302 Z M29.647,42.164 L29.393,43.504 L29.918,42.1 L30.891,39.635 L32.084,42.881 L31.396,38.309 L31.351,37.823 C31.351,37.823 30.89,37.858 30.65,38.231 C30.414,38.602 30.191,39.401 30.121,39.721 C30.059,40 29.906,40.258 29.896,40.274 L29.894,40.276 C29.605,40.284 29.632,39.878 29.632,39.878 L29.527,38.138 C29.431,38.064 29.361,37.982 29.312,37.894 C29.132,37.576 29.199,37.175 29.205,36.861 C29.209,36.461 29.56,36.006 29.824,35.431 C29.943,35.169 30.166,34.47 30.371,33.788 C30.615,32.972 30.838,32.177 30.838,32.177 C30.959,31.185 31.129,30.458 31.309,29.923 C31.696,28.781 32.129,28.513 32.225,28.427 C32.366,28.302 32.579,27.647 32.579,27.647 L29.647,42.164 Z M29.911,40.275 L29.647,42.164 L29.911,40.275 Z M32.831,23.998 C32.831,23.998 32.7,24.394 32.56,24.495 C32.419,24.594 31.748,25.469 31.874,26.042 C32,26.615 32.294,27.602 32.294,27.602 L32.569,27.569 L35.139,27.26 C35.139,27.26 35.313,27.217 35.532,27.135 C35.778,27.042 36.081,26.898 36.251,26.707 C36.565,26.351 37.464,24.87 37.464,24.87 L32.831,23.998 Z M25.413,43.152 L29.425,44.47 L36.921,42.339 L32.648,41.46 L29.919,42.099 L29.648,42.163 L25.413,43.152 Z M25.413,43.152 L25.411,44.207 L29.479,45.578 L36.92,43.39 L36.92,42.339 L25.413,43.152 Z M29.424,44.47 L29.422,45.511 L29.424,44.47 Z M32.348,22.16 C32.348,22.16 32.127,22 32.19,21.772 C32.254,21.545 32.016,21.12 32.202,21.017 C32.327,20.949 32.343,20.617 32.487,20.372 C32.559,20.25 32.665,20.149 32.831,20.116 C33.331,20.016 33.13,19.544 33.495,19.433 C33.866,19.325 34.192,19.049 34.325,19.057 C34.456,19.065 34.929,18.866 35.061,18.837 C35.122,18.827 35.282,18.801 35.448,18.784 C35.647,18.762 35.856,18.752 35.917,18.79 C35.981,18.833 36.226,18.946 36.454,19.035 C36.622,19.099 36.778,19.154 36.849,19.158 C37.013,19.168 37.638,19.42 37.751,19.427 C37.868,19.434 38.243,19.457 38.202,19.603 C38.159,19.748 38.069,19.874 38.149,19.911 C38.229,19.949 38.467,20.079 38.446,20.159 C38.426,20.241 38.3,20.415 38.329,20.512 C38.354,20.615 38.597,20.956 38.64,21.075 C38.683,21.19 38.704,21.373 38.619,21.449 C38.529,21.527 38.445,21.589 38.506,21.656 C38.567,21.726 38.526,21.887 38.457,21.95 C38.387,22.012 38.293,22.186 38.225,22.266 C38.153,22.342 37.954,22.675 37.85,22.75 C37.748,22.827 37.454,22.793 37.414,22.921 C37.373,23.052 36.969,23.174 36.871,23.168 C36.773,23.162 36.262,23.493 36.174,23.29 C36.088,23.089 36.092,22.743 36.133,22.614 C36.174,22.487 36.328,22.382 36.367,22.283 C36.404,22.187 36.398,22.041 36.351,21.987 C36.306,21.935 36.054,21.721 36.263,21.508 C36.474,21.288 36.882,20.526 36.96,20.315 C37.038,20.106 36.97,19.89 36.923,19.837 C36.876,19.786 36.353,19.492 36.271,19.455 C36.191,19.417 35.527,19.276 35.378,19.285 C35.232,19.291 34.806,19.251 34.636,19.356 C34.466,19.46 34.046,19.616 33.96,19.676 C33.874,19.738 33.544,20.045 33.544,20.045 L33.077,20.445 C33.077,20.445 32.515,20.983 32.46,22.162 C32.446,22.422 32.46,22.714 32.509,23.037 C32.509,23.037 32.579,23.562 32.904,23.959 C32.996,24.07 33.681,24.601 33.681,24.601 C33.681,24.601 33.958,24.654 34.023,24.658 C34.089,24.662 34.279,24.738 34.369,24.923 C34.455,25.109 34.66,25.847 35.078,25.722 L35.373,25.446 C35.373,25.446 35.805,25.618 35.887,25.656 C35.959,25.691 36.645,26.033 37.459,24.865 C37.543,24.744 37.629,24.606 37.715,24.452 C37.715,24.452 37.996,23.733 38.301,23.157 C38.371,23.124 38.633,22.961 38.715,22.93 C39.606,22.604 39.936,21.382 39.936,21.382 C39.936,21.382 39.942,21.211 39.93,20.965 L32.348,22.16 Z M39.137,23.973 C39.104,24.212 38.741,25.562 38.703,25.844 C38.666,26.124 38.629,26.407 38.767,26.755 C38.91,27.109 39.099,27.988 39.076,28.371 C39.053,28.751 38.873,29.771 38.734,30.349 C38.711,30.456 38.689,30.544 38.672,30.617 L38.6,30.927 L38.092,32.017 C38.092,32.017 37.252,33.644 37.108,34.019 C36.963,34.396 36.282,35.667 36.983,37.464 L37.262,38.489 C37.737,39.969 37.905,40.1 38.442,40.19 L39.137,23.973 Z M39.801,34.814 C39.801,34.814 39.551,37.283 39.246,38.011 C38.937,38.741 38.723,39.312 38.726,39.599 C38.73,39.88 38.523,40.634 38.431,40.831 C38.37,40.958 38.255,41.173 38.191,41.411 C38.156,41.544 38.134,41.684 38.148,41.823 C38.185,42.21 38.209,42.534 38.488,42.569 C38.769,42.606 39.199,42.51 39.199,42.51 C39.199,42.51 39.594,42.656 39.795,42.668 C39.996,42.68 40.236,42.715 40.383,42.623 C40.531,42.531 40.819,42.428 40.944,42.334 C41.071,42.24 41.436,41.92 41.428,41.676 C41.424,41.432 40.828,40.59 40.828,40.59 C40.828,40.59 40.797,40.49 40.762,40.332 C40.676,39.949 40.555,39.238 40.75,38.848 C41.025,38.299 44.043,34.098 43.838,31.118 L39.801,34.814 Z M45.6,30.701 C45.6,30.701 44.569,30.568 43.815,31.086 C43.659,31.191 43.512,31.328 43.391,31.498 C42.926,32.148 41.018,33.732 39.754,34.75 C39.334,35.088 38.984,35.365 38.785,35.521 C38.676,35.607 38.305,36.166 38.305,36.166 C38.305,36.166 38.744,29.092 43.383,23.555 L45.6,30.701 Z M35.438,18.663 C35.438,18.663 35.866,18.109 36.524,17.819 C36.68,17.751 39.809,16.11 42.631,16.621 L35.438,18.663 Z M39.833,20.148 C39.839,20.05 40.677,17.439 42.298,16.77 C42.894,16.427 43.587,16.716 43.587,16.716 C43.929,16.863 44.911,16.487 46.028,17.344 L46.924,17.064 C48.461,16.821 49.221,18.147 49.221,18.969 C49.221,19.79 48.1,20.836 48.1,20.836 L46.955,21.77 C46.639,22.332 45.451,22.943 45.09,23.191 C44.543,23.567 43.961,23.631 43.391,23.512 C41.604,23.141 39.944,20.964 39.944,20.964 L39.833,20.148 Z M41.889,39.041 C41.889,39.041 43.024,40.322 43.94,40.535 L41.889,39.041 Z M35.795,25.51 L36.061,25.35 L35.795,25.51 Z M29.897,28.309 C29.897,28.309 29.788,26.95 29.821,26.413 C29.839,26.119 30.153,24.643 30.434,23.371 L29.897,28.309 Z M30.932,27.611 C30.932,27.611 28.725,28.501 29.627,30.547 L30.932,27.611 Z M29.817,30.496 C29.436,31.012 29.463,30.967 29.411,31.101 C29.368,31.218 29.188,31.974 29.192,32.085 C29.194,32.19 29.169,32.423 29.11,32.466 C29.055,32.507 28.733,32.726 28.698,32.679 C28.665,32.63 28.389,32.232 28.264,32.206 C28.137,32.181 27.94,32.161 28.02,32.337 C28.1,32.515 27.524,32.425 27.922,32.767 L28.318,33.109 C28.318,33.109 28.679,33.421 28.906,33.468 C29.129,33.521 29.504,33.491 29.685,33.198 L29.817,30.496 Z M29.819,30.494 C29.819,30.494 29.817,30.494 29.817,30.496 L29.819,30.494 Z M31.286,29.913 C31.286,29.913 30.856,29.547 30.3,30.058 C29.913,30.414 29.833,30.484 29.818,30.496 C29.816,30.498 29.816,30.498 29.818,30.496 L29.82,30.494 L29.82,30.492 L31.286,29.913 Z M29.694,31.931 C29.678,32.079 29.549,32.622 29.878,32.671 C29.878,32.671 30.187,32.679 30.204,32.372 C30.224,32.065 30.368,31.919 30.405,31.792 L29.694,31.931 Z M29.809,32.716 C29.809,32.716 29.782,32.956 29.741,33.202 C29.706,33.419 29.661,33.64 29.618,33.706 C29.528,33.845 29.372,34.343 29.43,34.421 C29.43,34.421 29.584,34.907 29.834,34.558 L30.086,34.208 L30.35,33.78 L29.809,32.716 Z M32.834,13.383 C32.834,13.383 33.004,13.528 33.25,13.542 L32.834,13.383 Z M33.1,13.025 C33.1,13.025 33.08,13.096 33.348,13.112 L33.1,13.025 Z M28.508,18.971 C28.508,18.971 28.93,18.879 29.164,18.717 L28.508,18.971 Z M26.856,17.861 C26.856,17.861 27.317,17.24 27.542,17.419 L26.856,17.861 Z M27.321,17.621 L27.372,17.696 L27.321,17.621 Z M27.17,28.463 L27.025,28.585 L27.17,28.463 Z M23.811,13.356 L23.709,13.509 L23.811,13.356 Z M32.874,11.959 L32.856,12.081 L32.874,11.959 Z M34.415,12.523 L34.372,12.71 L34.415,12.523 Z M35.27,24.388 L35.395,24.527 L35.27,24.388 Z M34.795,24.45 L35.887,24.222 L34.795,24.45 Z M44.241,23.618 L43.255,27.491 L44.241,23.618 Z M45.075,23.169 C38.846,21.501 42.913,17.401 43.552,16.802 L45.075,23.169 Z M23.526,13.089 L24.192,13.535 L23.526,13.089 Z M32.516,11.708 C32.516,11.708 32.909,11.942 33.313,11.95 L32.516,11.708 Z M34.151,12.393 C34.151,12.393 34.542,12.628 34.946,12.635 L34.151,12.393 Z M27.448,28.527 C27.448,28.527 26.997,28.408 26.889,28.223 L27.448,28.527 Z M22.137,18.077 L22.399,18.044 C22.399,18.044 23.053,18.143 23.133,18.148 C23.215,18.153 23.807,18.262 23.807,18.262 C23.864,18.427 23.514,18.546 23.514,18.546 L22.881,18.65 L23.076,18.972 C23.273,19.292 22.84,19.548 22.84,19.548 C22.965,20.157 22.578,20.341 22.578,20.341 C21.98,20.742 21.406,20.394 20.986,20.154 C20.881,20.094 20.787,20.041 20.703,20.008 C20.281,19.842 20.396,19.449 20.387,19.058 C20.377,18.667 20.539,18.327 20.649,18.179 C20.759,18.031 21.274,17.847 21.274,17.847 L21.71,17.962 L22.137,18.077 L22.147,18.08 C22.147,18.08 22.346,18.389 22.254,18.449 C22.162,18.512 21.824,18.661 21.682,18.584 L21.537,18.509 L22.137,18.077 Z M30,12.401 L30.393,13.919 L30,12.401 Z M47.122,40.574 C47.122,40.574 44.745,40.117 44.649,36.314 L47.122,40.574 Z M22.5,36.146 C22.5,36.146 24.713,38.492 25.434,38.576 L22.5,36.146 Z M26.637,32.796 C26.557,33.962 26.471,34.806 26.471,34.806 C26.291,36.451 25.44,38.583 25.44,38.583 C25.44,38.583 26.329,38.552 27.151,38.28 C27.975,38.005 28.501,37.364 29.282,37.813 L26.637,32.796 Z M34.338,31.171 C35.479,30.917 36.477,30.786 37.225,30.718 C38.106,30.638 38.639,30.646 38.639,30.646 L34.338,31.171 Z M34.258,31.234 C34.258,31.234 34.227,33.765 34.238,33.963 C34.248,34.162 34.306,34.994 34.068,35.328 C33.832,35.664 33.576,36.26 33.605,36.502 C33.634,36.742 33.634,37.168 33.589,37.293 C33.542,37.418 33.292,38.193 33.292,38.193 C33.292,38.193 33.188,38.839 33.786,38.914 C34.381,38.99 35.2,39 35.516,38.839 C35.832,38.678 36.082,38.36 35.993,38.151 C35.903,37.94 35.669,37.801 35.514,37.598 C35.358,37.397 35.164,37.016 35.229,36.776 C35.229,36.776 35.329,36.452 35.325,36.309 C35.317,36.17 35.288,35.604 35.429,35.407 C35.568,35.212 36.581,33.663 36.581,33.663 C36.581,33.663 37.071,32.936 37.235,30.839 L34.258,31.234 Z M28.12,14.017 C28.12,14.017 28.011,13.833 27.923,13.682 C27.872,13.591 27.827,13.512 27.818,13.492 C27.797,13.434 27.759,13.345 27.841,13.232 C27.921,13.121 28.12,13.208 28.144,13.226 C28.167,13.246 28.281,13.389 28.441,13.514 C28.599,13.643 28.576,13.523 28.712,14.118 C28.741,14.243 28.749,14.343 28.737,14.425 C28.694,14.733 28.329,14.674 27.936,14.936 C27.428,15.274 26.868,14.911 26.868,14.911 C26.868,14.911 26.056,14.144 26.005,14.066 C25.954,13.992 25.866,13.999 25.794,14.081 C25.72,14.163 25.765,14.171 25.448,14.177 C25.134,14.182 24.991,13.997 24.946,13.906 C24.901,13.817 25.346,13.635 25.346,13.635 C25.346,13.635 25.832,13.348 26.321,13.31 C26.403,13.303 26.477,13.295 26.548,13.289 C26.898,13.254 27.122,13.232 27.45,13.433 L27.903,13.704 L28.12,14.017 Z M6.801,30.962 C6.766,30.98 5.465,30.675 5.42,30.501 C5.42,30.501 5.375,30.399 5.443,30.335 C5.515,30.273 5.732,30.032 5.808,29.898 C5.839,29.844 5.853,29.82 5.982,29.536 C6.17,29.131 6.482,28.437 6.482,28.437 C6.752,27.736 6.707,27.613 6.707,27.613 L7.008,23.781 C7.053,22.043 8.074,21.064 8.074,21.064 L6.801,30.962 Z M14.731,21.237 C14.731,21.237 12.739,21.548 10.608,21.425 C10.059,21.393 9.499,21.333 8.963,21.23 C8.662,21.173 8.369,21.103 8.09,21.017 L8.09,21.016 C7.942,20.972 7.797,20.923 7.656,20.87 C7.656,20.87 6.761,21.194 6.484,23.466 C6.484,23.466 6.371,25.709 6.082,26.604 C5.531,27.78 4.328,29.005 4.328,29.005 C4.328,29.005 4.002,29.368 4.4,29.727 L5.269,30.33 L14.731,21.237 Z M48.729,20.241 C49.25,21.54 49.581,23.344 49.868,25.81 C50.419,30.556 49.177,34.81 48.792,36.384 C48.405,37.956 49.032,40.191 49.735,40.368 C49.735,40.368 47.034,40.665 45.876,40.62 C45.386,40.6 45.329,40.608 44.786,40.583 C42.901,40.501 40.964,40.397 40.845,40.31 L48.729,20.241 Z" id="Shape" stroke="#FFFFFF" stroke-width="0.263" stroke-linecap="round" stroke-linejoin="round"></path>
                    <path d="M38.684,35.617 C38.684,35.617 37.452,36.601 39.288,37.15" id="Shape" stroke="#FFFFFF" stroke-width="0.263" stroke-linecap="round" stroke-linejoin="round"></path>
                    <path d="M48.571,24.271 C48.571,24.271 48.897,25.966 48.571,27.831 C48.243,29.695 48.938,35.248 48.792,36.352" id="Shape" stroke="#FFFFFF" stroke-width="0.263" stroke-linecap="round" stroke-linejoin="round"></path>
                    <path d="M44.627,19.417 L45.68,18.364" id="Shape" stroke="#FFFFFF" stroke-width="0.263" stroke-linecap="round" stroke-linejoin="round"></path>
                    <path d="M29.819,26.768 C29.819,26.768 30.766,23.843 31.36,23.605 M21.727,27.806 C21.727,27.806 23.948,28.677 24.286,29.732 M15.213,22.508 C15.213,22.508 15.098,23.495 15.389,24.889 C15.678,26.284 16.084,27.561 16.084,27.561 M26.592,22.248 C26.592,22.248 28.748,22.734 29.221,21.193 M24.145,31.873 C24.012,32.379 24.008,32.965 23.612,34.012 C23.612,34.012 23.407,34.563 23.171,35.047 C23.001,35.641 21.603,36.854 21.603,36.854 M18.331,29.695 C18.331,29.695 18.878,29.03 20.136,29.03 C20.136,29.03 20.673,29.006 21.105,29.006 M38.125,19.458 C38.125,19.458 39.852,19.111 39.928,20.969 M28.774,18.374 C29.167,18.178 29.225,17.928 29.225,17.928 C29.225,17.928 28.653,17.52 28.317,17.379 C27.981,17.238 28.321,16.973 28.321,16.973 M38.106,22.958 C38.106,22.958 37.965,23.834 37.758,24.376 M38.465,23.962 L40.858,23.842 C40.858,23.842 41.378,23.778 41.715,23.569 M43.213,34.591 C44.633,36.193 46.195,37.814 46.195,37.814 M40.145,26.636 C40.145,26.636 40.096,27.462 40.235,28.649" id="Shape" stroke="#FFFFFF" stroke-width="0.263" stroke-linecap="round" stroke-linejoin="round"></path>
                    <path d="M24.561,29.425 L24.307,29.639" id="Shape" stroke="#FFFFFF" stroke-width="0.263" stroke-linecap="round" stroke-linejoin="round"></path>
                </g>
            </g>
        </g>
    </g>
</svg>