<?xml version="1.0" encoding="UTF-8"?>
<svg width="50px" height="58px" viewBox="0 0 50 58" version="1.1" xmlns="http://www.w3.org/2000/svg" xmlns:xlink="http://www.w3.org/1999/xlink">
    <!-- Generator: Sketch 51.2 (57519) - http://www.bohemiancoding.com/sketch -->
    <title>logo-density</title>
    <desc>Created with Sketch.</desc>
    <defs>
        <polygon id="path-1" points="0 0 6 0 6 37 0 37"></polygon>
    </defs>
    <g id="Page-2" stroke="none" stroke-width="1" fill="none" fill-rule="evenodd">
        <g id="Desktop" transform="translate(-492.000000, -952.000000)">
            <g id="logo-density" transform="translate(492.000000, 952.000000)">
                <polygon id="Fill-1" fill="#FFFFFF" points="42 7 50 7 50 6 42 6"></polygon>
                <polyline id="Fill-2" fill="#FFFFFF" points="15 15 15 0 20 0 20 2.16249868 17.3846656 2.16249868 17.3846656 6.26258345 19.1214175 6.26258345 19.1214175 8.31103635 17.3846656 8.31103635 17.3846656 12.7699481 20 12.7699481 20 15 15 15"></polyline>
                <polyline id="Fill-3" fill="#FFFFFF" points="33.8036614 15 31.2541788 7.41059129 30.5346246 4.99933771 30.5346246 15 29 15 29 0 30.4653754 0 32.7903953 7.70146763 33.4657734 10.1361662 33.4657734 0 35 0 35 15 33.8036614 15"></polyline>
                <polygon id="Fill-4" fill="#FFFFFF" points="16 37 18 37 18 22 16 22"></polygon>
                <path d="M4.60768288,57.7812781 L4.35390274,57.0155587 C4.02901512,57.6709528 3.35717205,58 2.66285247,58 C1.04086637,58 0,56.8828597 0,55.1346277 L0,45.864215 C0,44.2907291 1.27380466,43 2.98814875,43 C4.70290151,43 5.8818962,44.2907291 5.8818962,45.864215 L5.8818962,48.5556127 L3.66121782,48.5556127 L3.66121782,45.7778064 C3.66121782,45.4290858 3.45034736,45.1872187 3.03555374,45.1872187 C2.63955864,45.1872187 2.38536984,45.4290858 2.38536984,45.7778064 L2.38536984,55.3321332 C2.38536984,55.7036132 2.63955864,55.9670824 3.03555374,55.9670824 C3.45034736,55.9670824 3.68369432,55.7036132 3.68369432,55.3332905 L3.68369432,52.3602932 L3.08050674,52.3602932 L3.08050674,50.6093609 L6,50.6093609 L6,57.7812781 L4.60768288,57.7812781" id="Fill-6" fill="#FFFFFF"></path>
                <polyline id="Fill-8" fill="#FFFFFF" points="18.1166515 58 16.4590548 51.2216276 15.9485744 49.1715852 15.9485744 58 14 58 14 43 16.1692488 43 17.6315584 49.7322772 18.0725166 51.8288121 18.0725166 43 20 43 20 58 18.1166515 58"></polyline>
                <polyline id="Fill-9" fill="#FFFFFF" points="32.2516856 23.5317881 32.2516856 37 30.8092813 37 30.8092813 23.5317881 29 23.5317881 29 22 34 22 34 23.5317881 32.2516856 23.5317881"></polyline>
                <polyline id="Fill-10" fill="#FFFFFF" points="46.7115061 31.0770861 46.7115061 37 45.1837231 37 45.1837231 31.0770861 43 22 44.5281572 22 46.0327409 28.9822517 47.5376988 22 49 22 46.7115061 31.0770861"></polyline>
                <polygon id="Fill-11" fill="#FFFFFF" points="28 51 36 51 36 49 28 49"></polygon>
                <polygon id="Fill-12" fill="#FFFFFF" points="31 54 33 54 33 46 31 46"></polygon>
                <mask id="mask-2" fill="white">
                    <use xlink:href="#path-1"></use>
                </mask>
                <g id="Clip-14"></g>
                <path d="M2.16177328,12.7954016 C3.68150885,12.7954016 3.78106164,12.4084559 3.76200661,7.48968145 C3.78106164,2.59114721 3.68150885,2.2030109 2.16177328,2.2030109 L2.16177328,12.7954016 Z M1.70134163,15 L0,15 L0,0 L1.70134163,0 C5.70056387,0.0190496349 6,1.63231559 6,7.50912795 C6,13.3668907 5.70056387,14.9793629 1.70134163,15 Z" id="Fill-13" fill="#FFFFFF" mask="url(#mask-2)"></path>
                <path d="M3.94562307,28.7134297 C2.96519053,27.0947691 2.4292482,26.5037805 2.4292482,24.8210832 C2.4292482,24.3180486 2.75345005,24.0777183 3.15180227,24.0777183 C3.52420185,24.0777183 3.80597322,24.340037 3.80597322,24.8210832 L3.80597322,25.9270651 L5.88341916,25.7438278 L5.88341916,25.039425 C5.88341916,23.1163975 4.78722966,22 3.15180227,22 C1.05005149,22 0.0477857878,23.4666701 0.0477857878,25.2801409 C0.0477857878,26.9636097 1.28486097,28.9757484 2.19567456,30.3313188 C3.10484037,31.7949028 3.66508754,32.8237321 3.66508754,34.1353256 C3.66508754,34.6823372 3.4084449,35.0106213 2.89598352,35.0106213 C2.35880536,35.0106213 2.10175077,34.661506 2.10175077,34.1353256 L2.10175077,32.9583633 L0,33.1435295 L0,33.9613466 C0,35.9067483 1.14438723,37 3.01174047,37 C4.52893924,37 6,36.0598961 6,33.7854387 C6,32.0803672 4.97425335,30.3529215 3.94562307,28.7134297" id="Fill-15" fill="#FFFFFF" mask="url(#mask-2)"></path>
            </g>
        </g>
    </g>
</svg>